M48
;DRILL file {Pcbnew (2014-03-19 BZR 4756)-product} date Thu 12 Jun 2014 08:54:04 PM AKDT
;FORMAT={-:-/ absolute / inch / decimal}
FMAT,2
INCH,TZ
T1C0.025
T2C0.032
T3C0.039
T4C0.063
T5C0.138
%
G90
G05
M72
T1
X4.738Y-3.766
X4.845Y-4.515
X4.846Y-3.864
X4.902Y-3.584
X4.902Y-4.728
X4.91Y-4.665
X4.97Y-3.79
X4.97Y-3.83
X4.998Y-3.638
X4.998Y-3.704
X5.01Y-3.79
X5.01Y-3.83
X5.138Y-3.856
X5.148Y-3.492
X5.148Y-3.528
X5.16Y-4.3875
X5.2Y-4.75
X5.308Y-3.568
X5.31Y-3.532
X5.318Y-3.964
X5.32Y-4.42
X5.33Y-4.022
X5.33Y-4.092
X5.334Y-3.79
X5.348Y-3.736
X5.354Y-3.964
X5.374Y-3.79
X5.398Y-4.59
X5.4Y-4.6975
X5.4Y-4.7775
X5.4Y-4.8575
X5.432Y-4.144
X5.446Y-3.62
X5.446Y-3.686
X5.4575Y-4.9575
X5.55Y-3.972
X5.6Y-3.404
X5.602Y-3.592
X5.636Y-3.942
X5.731Y-3.943
X5.808Y-3.734
X5.808Y-3.814
X5.823Y-3.986
X5.944Y-3.88
X5.946Y-3.85
X5.964Y-3.468
X5.966Y-4.414
X6.012Y-4.276
X6.022Y-3.76
X6.058Y-4.958
X6.062Y-4.784
X6.089Y-3.672
X6.089Y-3.744
X6.089Y-3.939
X6.091Y-3.904
X6.11Y-4.192
X6.12Y-4.584
X6.17Y-4.366
X6.2064Y-4.3196
X6.216Y-4.018
X6.22Y-3.83
X6.221Y-3.7945
X6.234Y-3.496
X6.252Y-4.414
X6.2716Y-4.3188
X6.3372Y-4.3188
X6.348Y-4.028
X6.374Y-3.8455
X6.374Y-3.88
X6.44Y-3.494
X6.446Y-4.374
X6.45Y-3.898
X6.514Y-3.722
X6.534Y-4.264
X6.534Y-4.31
X6.625Y-4.519
X6.746Y-4.1965
X6.802Y-4.418
X6.966Y-4.25
X6.97Y-4.078
T2
X4.575Y-4.015
X4.675Y-4.115
X4.775Y-4.015
X5.5225Y-4.4975
X5.6225Y-4.4975
X5.7225Y-4.4975
X5.8225Y-4.4975
X6.95Y-3.948
X6.95Y-4.608
X7.05Y-3.848
X7.05Y-4.508
X7.15Y-3.948
X7.15Y-4.608
T3
X5.025Y-4.02
X5.025Y-4.12
X5.025Y-4.22
T4
X5.75Y-4.7119
X5.75Y-4.9481
X6.375Y-4.7119
X6.375Y-4.9481
T5
X4.645Y-3.53
X4.645Y-4.905
X7.08Y-3.53
X7.08Y-4.905
T0
M30
