%FSLAX34Y34*%
G04 Gerber Fmt 3.4, Leading zero omitted, Abs format*
G04 (created by PCBNEW (2014-03-19 BZR 4756)-product) date Thu 12 Jun 2014 08:54:00 PM AKDT*
%MOIN*%
G01*
G70*
G90*
G04 APERTURE LIST*
%ADD10C,0.005906*%
%ADD11R,0.025000X0.045000*%
%ADD12R,0.045000X0.025000*%
%ADD13R,0.100000X0.050000*%
%ADD14O,0.118700X0.059300*%
%ADD15R,0.040200X0.016100*%
%ADD16R,0.016000X0.026000*%
%ADD17R,0.026000X0.016000*%
%ADD18R,0.051200X0.011800*%
%ADD19R,0.039370X0.039370*%
%ADD20R,0.086614X0.039370*%
%ADD21R,0.039370X0.086614*%
%ADD22C,0.062992*%
%ADD23R,0.068898X0.114173*%
%ADD24R,0.088583X0.114173*%
%ADD25R,0.068898X0.082677*%
%ADD26R,0.088583X0.094488*%
%ADD27R,0.068898X0.070866*%
%ADD28R,0.090600X0.019700*%
%ADD29R,0.098400X0.078700*%
%ADD30R,0.055000X0.055000*%
%ADD31C,0.055000*%
%ADD32R,0.144000X0.080000*%
%ADD33R,0.040000X0.080000*%
%ADD34C,0.060000*%
%ADD35R,0.015700X0.023600*%
%ADD36R,0.023600X0.015700*%
%ADD37R,0.031400X0.031400*%
%ADD38C,0.035000*%
%ADD39C,0.013780*%
%ADD40C,0.019685*%
G04 APERTURE END LIST*
G54D10*
G54D11*
X49620Y-36400D03*
X49020Y-36400D03*
X47860Y-37660D03*
X48460Y-37660D03*
X49620Y-37040D03*
X49020Y-37040D03*
X50100Y-39120D03*
X49500Y-39120D03*
X61200Y-44180D03*
X60600Y-44180D03*
X53720Y-40920D03*
X54320Y-40920D03*
X54080Y-36180D03*
X53480Y-36180D03*
X53720Y-40220D03*
X54320Y-40220D03*
G54D12*
X59650Y-45375D03*
X59650Y-44775D03*
G54D11*
X54080Y-36880D03*
X53480Y-36880D03*
G54D12*
X62050Y-42750D03*
X62050Y-42150D03*
X62710Y-42750D03*
X62710Y-42150D03*
G54D13*
X53200Y-45900D03*
X53200Y-44700D03*
G54D12*
X63370Y-42150D03*
X63370Y-42750D03*
G54D11*
X53025Y-47775D03*
X53625Y-47775D03*
G54D12*
X57760Y-41120D03*
X57760Y-40520D03*
G54D11*
X53625Y-48575D03*
X53025Y-48575D03*
X53625Y-46975D03*
X53025Y-46975D03*
X58480Y-37340D03*
X59080Y-37340D03*
X58480Y-38140D03*
X59080Y-38140D03*
G54D12*
X66540Y-38920D03*
X66540Y-39520D03*
X66540Y-40140D03*
X66540Y-40740D03*
X60220Y-37200D03*
X60220Y-36600D03*
G54D11*
X61240Y-37440D03*
X61840Y-37440D03*
X61240Y-36720D03*
X61840Y-36720D03*
G54D12*
X69147Y-43612D03*
X69147Y-43012D03*
X68397Y-43012D03*
X68397Y-43612D03*
G54D14*
X50250Y-42200D03*
X50250Y-41200D03*
X50250Y-40200D03*
G54D12*
X60440Y-45380D03*
X60440Y-44780D03*
X61200Y-45380D03*
X61200Y-44780D03*
G54D11*
X60600Y-43480D03*
X61200Y-43480D03*
G54D12*
X62970Y-41290D03*
X62970Y-40690D03*
X63990Y-41290D03*
X63990Y-40690D03*
G54D11*
X60600Y-42760D03*
X61200Y-42760D03*
G54D12*
X65137Y-40652D03*
X65137Y-40052D03*
X65140Y-39540D03*
X65140Y-38940D03*
X65860Y-39540D03*
X65860Y-40140D03*
X69147Y-40762D03*
X69147Y-41362D03*
G54D11*
X66850Y-43730D03*
X66250Y-43730D03*
G54D12*
X68397Y-40762D03*
X68397Y-41362D03*
G54D11*
X64890Y-43750D03*
X65490Y-43750D03*
X66250Y-44575D03*
X66850Y-44575D03*
G54D12*
X67340Y-40740D03*
X67340Y-40140D03*
X69147Y-41912D03*
X69147Y-42512D03*
X68397Y-41912D03*
X68397Y-42512D03*
G54D15*
X49014Y-37656D03*
X49014Y-37912D03*
X49014Y-38168D03*
X49014Y-38424D03*
X50826Y-38424D03*
X50826Y-38168D03*
X50826Y-37912D03*
X50826Y-37656D03*
G54D16*
X53760Y-38380D03*
X53240Y-38380D03*
X53500Y-38380D03*
X53240Y-39180D03*
X53760Y-39180D03*
X53500Y-39180D03*
G54D17*
X51920Y-34980D03*
X51920Y-35500D03*
X51920Y-35240D03*
X52720Y-35500D03*
X52720Y-34980D03*
X52720Y-35240D03*
G54D15*
X55954Y-39176D03*
X55954Y-39432D03*
X55954Y-39688D03*
X55954Y-39944D03*
X57766Y-39944D03*
X57766Y-39688D03*
X57766Y-39432D03*
X57766Y-39176D03*
G54D18*
X64647Y-41362D03*
X64647Y-41612D03*
X64647Y-41872D03*
X64647Y-42122D03*
X64647Y-42382D03*
X64647Y-42637D03*
X64647Y-42892D03*
X66847Y-42892D03*
X66847Y-42637D03*
X66847Y-42382D03*
X66847Y-42122D03*
X66847Y-41867D03*
X66847Y-41612D03*
X66847Y-41357D03*
G54D17*
X60560Y-39180D03*
X60560Y-38660D03*
X60560Y-38920D03*
X59760Y-38660D03*
X59760Y-39180D03*
X59760Y-38920D03*
X63360Y-38640D03*
X63360Y-38120D03*
X63360Y-38380D03*
X62560Y-38120D03*
X62560Y-38640D03*
X62560Y-38380D03*
G54D19*
X55409Y-34960D03*
G54D20*
X56000Y-34369D03*
X56000Y-35550D03*
G54D19*
X63360Y-35550D03*
G54D21*
X62769Y-34960D03*
X63950Y-34960D03*
G54D22*
X57500Y-47118D03*
X57500Y-49481D03*
G54D23*
X55236Y-49579D03*
G54D24*
X59665Y-46922D03*
G54D25*
X55236Y-47118D03*
G54D26*
X59665Y-48693D03*
G54D27*
X55236Y-48300D03*
G54D22*
X63750Y-47118D03*
X63750Y-49481D03*
G54D23*
X61486Y-49579D03*
G54D24*
X65915Y-46922D03*
G54D25*
X61486Y-47118D03*
G54D26*
X65915Y-48693D03*
G54D27*
X61486Y-48300D03*
G54D12*
X49100Y-45650D03*
X49100Y-46250D03*
G54D13*
X51600Y-45650D03*
X51600Y-44450D03*
G54D28*
X47708Y-43820D03*
X47708Y-44135D03*
X47708Y-44450D03*
X47708Y-44765D03*
X47708Y-45080D03*
G54D29*
X47669Y-42698D03*
X45504Y-42698D03*
X47669Y-46202D03*
X45504Y-46202D03*
G54D13*
X60440Y-34680D03*
X60440Y-35880D03*
X50200Y-45650D03*
X50200Y-44450D03*
G54D30*
X58225Y-44975D03*
G54D31*
X57225Y-44975D03*
X56225Y-44975D03*
X55225Y-44975D03*
G54D32*
X51100Y-49550D03*
G54D33*
X51100Y-46950D03*
X50200Y-46950D03*
X52000Y-46950D03*
G54D34*
X70500Y-38480D03*
X71500Y-39480D03*
X69500Y-39480D03*
X70500Y-45080D03*
X71500Y-46080D03*
X69500Y-46080D03*
X46750Y-41150D03*
X45750Y-40150D03*
X47750Y-40150D03*
G54D35*
X52697Y-38380D03*
X52343Y-38380D03*
G54D36*
X51920Y-36003D03*
X51920Y-36357D03*
G54D35*
X55257Y-39180D03*
X54903Y-39180D03*
X54237Y-34960D03*
X53883Y-34960D03*
X58657Y-39180D03*
X58303Y-39180D03*
X61397Y-38660D03*
X61043Y-38660D03*
G54D36*
X63360Y-37183D03*
X63360Y-37537D03*
G54D37*
X49020Y-49535D03*
X49020Y-48945D03*
G54D36*
X54320Y-39537D03*
X54320Y-39183D03*
X53460Y-35317D03*
X53460Y-34963D03*
X59080Y-38823D03*
X59080Y-39177D03*
X61840Y-38283D03*
X61840Y-38637D03*
G54D35*
X51917Y-37660D03*
X51563Y-37660D03*
G54D36*
X52340Y-38017D03*
X52340Y-37663D03*
X51920Y-36903D03*
X51920Y-37257D03*
G54D12*
X49020Y-47740D03*
X49020Y-48340D03*
G54D38*
X49700Y-37900D03*
X49700Y-38300D03*
X50100Y-38300D03*
X50100Y-37900D03*
X53740Y-37900D03*
X53340Y-37900D03*
X53180Y-39640D03*
X53540Y-39640D03*
X53300Y-40220D03*
X53300Y-40920D03*
X60120Y-42760D03*
X62064Y-43196D03*
X62716Y-43188D03*
X63372Y-43188D03*
X67460Y-41965D03*
X51380Y-38560D03*
X49980Y-36380D03*
X49980Y-37040D03*
X47380Y-37660D03*
X48460Y-38640D03*
X61200Y-45840D03*
X60580Y-49580D03*
X54575Y-49575D03*
X54000Y-48575D03*
X54000Y-47775D03*
X54000Y-46975D03*
X53200Y-44200D03*
X51600Y-43875D03*
X48450Y-45150D03*
X49100Y-46650D03*
X52000Y-47500D03*
X49020Y-47280D03*
X56000Y-34040D03*
X56020Y-35920D03*
X53100Y-35320D03*
X53080Y-35680D03*
X51480Y-35280D03*
X51480Y-34920D03*
X54460Y-36200D03*
X54460Y-36860D03*
X60220Y-37600D03*
X58080Y-37340D03*
X58080Y-38140D03*
X59440Y-38800D03*
X59460Y-38500D03*
X60910Y-39040D03*
X60890Y-39390D03*
X60890Y-37440D03*
X60890Y-36720D03*
X62340Y-34960D03*
X64400Y-34940D03*
X62200Y-38300D03*
X62210Y-37945D03*
X63740Y-38455D03*
X63740Y-38800D03*
X58230Y-39860D03*
X57310Y-39430D03*
X55500Y-39720D03*
X56360Y-39420D03*
X65140Y-37220D03*
X49020Y-35840D03*
X59640Y-34680D03*
X53480Y-37360D03*
X54320Y-41440D03*
X53980Y-45900D03*
X61100Y-41920D03*
X62160Y-40180D03*
X69700Y-40780D03*
X69660Y-42500D03*
X64460Y-43740D03*
X61700Y-43660D03*
X65340Y-42640D03*
X59660Y-44140D03*
X62520Y-44140D03*
X63480Y-40280D03*
X64500Y-38980D03*
X66250Y-45190D03*
X60620Y-47840D03*
X65340Y-43100D03*
X68020Y-44180D03*
G54D39*
X49576Y-38424D02*
X49700Y-38300D01*
X50100Y-38300D02*
X50100Y-37900D01*
X49014Y-38424D02*
X49576Y-38424D01*
X53760Y-38380D02*
X53760Y-37920D01*
X53760Y-37920D02*
X53740Y-37900D01*
X53500Y-38380D02*
X53500Y-38060D01*
X53500Y-38060D02*
X53340Y-37900D01*
X53240Y-39180D02*
X53240Y-39580D01*
X53240Y-39580D02*
X53180Y-39640D01*
X53500Y-39180D02*
X53500Y-39600D01*
X53500Y-39600D02*
X53540Y-39640D01*
G54D40*
X53720Y-40220D02*
X53300Y-40220D01*
X53720Y-40920D02*
X53300Y-40920D01*
G54D39*
X60600Y-42760D02*
X60120Y-42760D01*
X62050Y-42750D02*
X62050Y-43182D01*
X62050Y-43182D02*
X62064Y-43196D01*
X62710Y-42750D02*
X62710Y-43182D01*
X62710Y-43182D02*
X62716Y-43188D01*
X63370Y-42750D02*
X63370Y-43186D01*
X63370Y-43186D02*
X63372Y-43188D01*
X66847Y-42122D02*
X67302Y-42122D01*
X67302Y-42122D02*
X67460Y-41965D01*
X50826Y-38424D02*
X51244Y-38424D01*
X51244Y-38424D02*
X51380Y-38560D01*
X49620Y-36400D02*
X49960Y-36400D01*
X49960Y-36400D02*
X49980Y-36380D01*
X49620Y-37040D02*
X49980Y-37040D01*
X47860Y-37660D02*
X47380Y-37660D01*
X49014Y-38424D02*
X48676Y-38424D01*
X48676Y-38424D02*
X48460Y-38640D01*
G54D40*
X61200Y-45380D02*
X61200Y-45840D01*
X61486Y-49579D02*
X60580Y-49579D01*
X60580Y-49579D02*
X60580Y-49580D01*
X55236Y-49579D02*
X54579Y-49579D01*
X54579Y-49579D02*
X54575Y-49575D01*
X53625Y-48575D02*
X54000Y-48575D01*
X53625Y-47775D02*
X54000Y-47775D01*
X53625Y-46975D02*
X54000Y-46975D01*
X53200Y-44700D02*
X53200Y-44175D01*
X53200Y-44175D02*
X53200Y-44200D01*
X51600Y-44450D02*
X51600Y-43875D01*
X47708Y-45080D02*
X48380Y-45080D01*
X48380Y-45080D02*
X48450Y-45150D01*
X49100Y-46250D02*
X49100Y-46650D01*
X52000Y-46950D02*
X52000Y-47500D01*
G54D39*
X49020Y-47740D02*
X49020Y-47280D01*
X56000Y-34369D02*
X56000Y-34040D01*
X56000Y-35900D02*
X56020Y-35920D01*
X56000Y-35550D02*
X56000Y-35900D01*
X53020Y-35240D02*
X53100Y-35320D01*
X52720Y-35240D02*
X53020Y-35240D01*
X52900Y-35500D02*
X53080Y-35680D01*
X52720Y-35500D02*
X52900Y-35500D01*
X51520Y-35240D02*
X51480Y-35280D01*
X51920Y-35240D02*
X51520Y-35240D01*
X51540Y-34980D02*
X51480Y-34920D01*
X51920Y-34980D02*
X51540Y-34980D01*
X54440Y-36180D02*
X54460Y-36200D01*
X54080Y-36180D02*
X54440Y-36180D01*
X54440Y-36880D02*
X54460Y-36860D01*
X54080Y-36880D02*
X54440Y-36880D01*
X60220Y-37200D02*
X60220Y-37600D01*
X58480Y-37340D02*
X58080Y-37340D01*
X58480Y-38140D02*
X58080Y-38140D01*
X59550Y-38920D02*
X59430Y-38800D01*
X59430Y-38800D02*
X59440Y-38800D01*
X59760Y-38920D02*
X59550Y-38920D01*
X59620Y-38660D02*
X59460Y-38500D01*
X59760Y-38660D02*
X59620Y-38660D01*
X60790Y-38920D02*
X60910Y-39040D01*
X60560Y-38920D02*
X60790Y-38920D01*
X60680Y-39180D02*
X60890Y-39390D01*
X60560Y-39180D02*
X60680Y-39180D01*
X61240Y-37440D02*
X60890Y-37440D01*
X61240Y-36720D02*
X60890Y-36720D01*
X62769Y-34960D02*
X62340Y-34960D01*
X64380Y-34960D02*
X64400Y-34940D01*
X63950Y-34960D02*
X64380Y-34960D01*
X62280Y-38380D02*
X62200Y-38300D01*
X62560Y-38380D02*
X62280Y-38380D01*
X62385Y-38120D02*
X62210Y-37945D01*
X62560Y-38120D02*
X62385Y-38120D01*
X63665Y-38380D02*
X63740Y-38455D01*
X63360Y-38380D02*
X63665Y-38380D01*
X63580Y-38640D02*
X63740Y-38800D01*
X63360Y-38640D02*
X63580Y-38640D01*
X58058Y-39688D02*
X58230Y-39860D01*
X57766Y-39688D02*
X58058Y-39688D01*
X57312Y-39432D02*
X57310Y-39430D01*
X57766Y-39432D02*
X57312Y-39432D01*
X55532Y-39688D02*
X55500Y-39720D01*
X55954Y-39688D02*
X55532Y-39688D01*
X56348Y-39432D02*
X56360Y-39420D01*
X55954Y-39432D02*
X56348Y-39432D01*
X65140Y-38940D02*
X65140Y-37220D01*
X49020Y-36400D02*
X49020Y-35840D01*
X60440Y-34680D02*
X59640Y-34680D01*
X53480Y-36880D02*
X53480Y-37360D01*
X54320Y-40920D02*
X54320Y-41440D01*
X53200Y-45900D02*
X53980Y-45900D01*
X65140Y-38940D02*
X66520Y-38940D01*
X66520Y-38940D02*
X66540Y-38920D01*
X62050Y-42150D02*
X62710Y-42150D01*
X62710Y-42150D02*
X63370Y-42150D01*
X49020Y-37040D02*
X49020Y-36400D01*
X49020Y-37040D02*
X49020Y-37650D01*
X49020Y-37650D02*
X49014Y-37656D01*
X49014Y-37656D02*
X48464Y-37656D01*
X48464Y-37656D02*
X48460Y-37660D01*
G54D40*
X47750Y-40150D02*
X50200Y-40150D01*
X50200Y-40150D02*
X50250Y-40200D01*
X53025Y-47775D02*
X53025Y-48575D01*
X53025Y-46975D02*
X53025Y-47775D01*
X53025Y-46975D02*
X53025Y-46075D01*
X53025Y-46075D02*
X53200Y-45900D01*
G54D39*
X51085Y-49535D02*
X51100Y-49550D01*
X49020Y-49535D02*
X51085Y-49535D01*
X53460Y-36160D02*
X53480Y-36180D01*
X53460Y-35317D02*
X53460Y-36160D01*
X53480Y-36780D02*
X53480Y-36880D01*
X53480Y-36180D02*
X53480Y-36780D01*
X54320Y-39537D02*
X54320Y-40220D01*
X54320Y-40220D02*
X54320Y-40920D01*
X61330Y-42150D02*
X61100Y-41920D01*
X62050Y-42150D02*
X61330Y-42150D01*
X62970Y-40470D02*
X62680Y-40180D01*
X62970Y-40690D02*
X62970Y-40470D01*
X63990Y-40030D02*
X63720Y-39760D01*
X63720Y-39760D02*
X63100Y-39760D01*
X63100Y-39760D02*
X62680Y-40180D01*
X63990Y-40690D02*
X63990Y-40030D01*
X62680Y-40180D02*
X62160Y-40180D01*
X69682Y-40762D02*
X69700Y-40780D01*
X69147Y-40762D02*
X69682Y-40762D01*
X69647Y-42512D02*
X69660Y-42500D01*
X69147Y-42512D02*
X69647Y-42512D01*
X69652Y-43612D02*
X69660Y-43605D01*
X69660Y-43605D02*
X69660Y-42500D01*
X69147Y-43612D02*
X69652Y-43612D01*
X64070Y-42150D02*
X64097Y-42122D01*
X64097Y-42122D02*
X64647Y-42122D01*
X63370Y-42150D02*
X64070Y-42150D01*
X64470Y-43750D02*
X64460Y-43740D01*
X64890Y-43750D02*
X64470Y-43750D01*
G54D40*
X50100Y-39120D02*
X51280Y-39120D01*
X56225Y-44205D02*
X56225Y-44975D01*
X55660Y-43640D02*
X56225Y-44205D01*
X53100Y-43640D02*
X55660Y-43640D01*
X52180Y-42720D02*
X53100Y-43640D01*
X52180Y-40020D02*
X52180Y-42720D01*
X51280Y-39120D02*
X52180Y-40020D01*
G54D39*
X61200Y-43480D02*
X61520Y-43480D01*
X61520Y-43480D02*
X61700Y-43660D01*
X61200Y-42760D02*
X61200Y-43480D01*
X64647Y-42637D02*
X65337Y-42637D01*
X65337Y-42637D02*
X65340Y-42640D01*
X49500Y-39120D02*
X47920Y-39120D01*
X47920Y-39120D02*
X47550Y-38750D01*
X46750Y-41150D02*
X46750Y-39550D01*
X48132Y-38168D02*
X49014Y-38168D01*
X46750Y-39550D02*
X47550Y-38750D01*
X47550Y-38750D02*
X48132Y-38168D01*
X52697Y-38380D02*
X53240Y-38380D01*
X52340Y-38377D02*
X52343Y-38380D01*
X52340Y-38017D02*
X52340Y-38377D01*
X51920Y-36003D02*
X51920Y-35500D01*
X51920Y-36903D02*
X51920Y-36357D01*
G54D40*
X61200Y-44780D02*
X61200Y-44180D01*
X60440Y-44780D02*
X61200Y-44780D01*
X65447Y-46922D02*
X64430Y-45905D01*
X64430Y-45905D02*
X62275Y-45905D01*
X62275Y-45905D02*
X61860Y-45490D01*
X61860Y-45490D02*
X61860Y-44925D01*
X61860Y-44925D02*
X61715Y-44780D01*
X61715Y-44780D02*
X61200Y-44780D01*
X65915Y-46922D02*
X65447Y-46922D01*
X60600Y-44180D02*
X60600Y-43480D01*
G54D39*
X55950Y-39180D02*
X55954Y-39176D01*
X55257Y-39180D02*
X55950Y-39180D01*
X54900Y-39183D02*
X54903Y-39180D01*
X54320Y-39183D02*
X54900Y-39183D01*
X54317Y-39180D02*
X54320Y-39183D01*
X53760Y-39180D02*
X54317Y-39180D01*
X55409Y-34960D02*
X54237Y-34960D01*
X53443Y-34980D02*
X53460Y-34963D01*
X52720Y-34980D02*
X53443Y-34980D01*
X53880Y-34963D02*
X53883Y-34960D01*
X53460Y-34963D02*
X53880Y-34963D01*
G54D40*
X60440Y-45380D02*
X59655Y-45380D01*
X59655Y-45380D02*
X59650Y-45375D01*
X59650Y-45375D02*
X59650Y-46906D01*
X59650Y-46906D02*
X59665Y-46922D01*
X59665Y-46922D02*
X59197Y-46922D01*
X55806Y-47118D02*
X55236Y-47118D01*
X56625Y-46300D02*
X55806Y-47118D01*
X58575Y-46300D02*
X56625Y-46300D01*
X59197Y-46922D02*
X58575Y-46300D01*
X55225Y-44975D02*
X55225Y-47107D01*
X55225Y-47107D02*
X55236Y-47118D01*
G54D39*
X64647Y-42382D02*
X64197Y-42382D01*
X59650Y-44150D02*
X59650Y-44775D01*
X59660Y-44140D02*
X59650Y-44150D01*
X63520Y-44140D02*
X62520Y-44140D01*
X63940Y-43720D02*
X63520Y-44140D01*
X63940Y-42640D02*
X63940Y-43720D01*
X64197Y-42382D02*
X63940Y-42640D01*
X62970Y-41290D02*
X58490Y-41290D01*
X58320Y-41120D02*
X57760Y-41120D01*
X58490Y-41290D02*
X58320Y-41120D01*
X64647Y-41872D02*
X63822Y-41872D01*
X62970Y-41560D02*
X62970Y-41290D01*
X63080Y-41670D02*
X62970Y-41560D01*
X63620Y-41670D02*
X63080Y-41670D01*
X63822Y-41872D02*
X63620Y-41670D01*
X57760Y-39950D02*
X57766Y-39944D01*
X57760Y-40520D02*
X57760Y-39950D01*
X59083Y-39180D02*
X59080Y-39177D01*
X59760Y-39180D02*
X59083Y-39180D01*
X59077Y-39180D02*
X59080Y-39177D01*
X58657Y-39180D02*
X59077Y-39180D01*
X58299Y-39176D02*
X58303Y-39180D01*
X57766Y-39176D02*
X58299Y-39176D01*
X59080Y-38140D02*
X59080Y-38823D01*
X59080Y-37340D02*
X59080Y-38140D01*
X61840Y-37440D02*
X61840Y-38283D01*
X61840Y-36720D02*
X61840Y-37440D01*
X61840Y-36200D02*
X61520Y-35880D01*
X61520Y-35880D02*
X60440Y-35880D01*
X61840Y-36720D02*
X61840Y-36200D01*
X59520Y-35880D02*
X59080Y-36320D01*
X59080Y-36320D02*
X59080Y-37340D01*
X60440Y-35880D02*
X59520Y-35880D01*
X60220Y-36100D02*
X60440Y-35880D01*
X60220Y-36600D02*
X60220Y-36100D01*
X66540Y-40140D02*
X66540Y-39520D01*
X66847Y-41867D02*
X66157Y-41867D01*
X65860Y-41570D02*
X65860Y-40140D01*
X66157Y-41867D02*
X65860Y-41570D01*
X66540Y-40140D02*
X65860Y-40140D01*
X67340Y-40740D02*
X68375Y-40740D01*
X68375Y-40740D02*
X68397Y-40762D01*
X67340Y-40740D02*
X66540Y-40740D01*
X66540Y-40740D02*
X66540Y-41340D01*
X66557Y-41357D02*
X66847Y-41357D01*
X66540Y-41340D02*
X66557Y-41357D01*
X61843Y-38640D02*
X61840Y-38637D01*
X62560Y-38640D02*
X61843Y-38640D01*
X61817Y-38660D02*
X61840Y-38637D01*
X61420Y-38637D02*
X61397Y-38660D01*
X61840Y-38637D02*
X61420Y-38637D01*
X60560Y-38660D02*
X61043Y-38660D01*
X66847Y-42382D02*
X67542Y-42382D01*
X67672Y-42512D02*
X68397Y-42512D01*
X67542Y-42382D02*
X67672Y-42512D01*
X69147Y-43012D02*
X68397Y-43012D01*
X68397Y-43012D02*
X68397Y-42512D01*
X66850Y-43730D02*
X66850Y-44575D01*
X66847Y-42892D02*
X67237Y-42892D01*
X67362Y-43017D02*
X67362Y-43612D01*
X67237Y-42892D02*
X67362Y-43017D01*
X66850Y-43730D02*
X67245Y-43730D01*
X67362Y-43612D02*
X68397Y-43612D01*
X67245Y-43730D02*
X67362Y-43612D01*
X63360Y-35550D02*
X63360Y-37183D01*
X63360Y-37537D02*
X63360Y-38120D01*
X51920Y-37657D02*
X51917Y-37660D01*
X51920Y-37257D02*
X51920Y-37657D01*
X52337Y-37660D02*
X52340Y-37663D01*
X51917Y-37660D02*
X52337Y-37660D01*
X50830Y-37660D02*
X50826Y-37656D01*
X51559Y-37656D02*
X51563Y-37660D01*
X50826Y-37656D02*
X51559Y-37656D01*
X63690Y-41290D02*
X63990Y-41290D01*
X63480Y-41080D02*
X63690Y-41290D01*
X63480Y-40280D02*
X63480Y-41080D01*
X64647Y-41612D02*
X64052Y-41612D01*
X63990Y-41550D02*
X63990Y-41290D01*
X64052Y-41612D02*
X63990Y-41550D01*
X64592Y-40652D02*
X65137Y-40652D01*
X64480Y-40540D02*
X64592Y-40652D01*
X64480Y-39000D02*
X64480Y-40540D01*
X64500Y-38980D02*
X64480Y-39000D01*
X71500Y-39480D02*
X70500Y-38480D01*
X64647Y-41362D02*
X64937Y-41362D01*
X64937Y-41362D02*
X65137Y-41162D01*
X65137Y-41162D02*
X65137Y-40652D01*
X65860Y-39540D02*
X65140Y-39540D01*
X65140Y-39540D02*
X65140Y-40050D01*
X65140Y-40050D02*
X65137Y-40052D01*
X66847Y-41612D02*
X67477Y-41612D01*
X67727Y-41362D02*
X68397Y-41362D01*
X67477Y-41612D02*
X67727Y-41362D01*
X68397Y-41362D02*
X69147Y-41362D01*
X65490Y-43750D02*
X66230Y-43750D01*
X66230Y-43750D02*
X66250Y-43730D01*
X66847Y-42637D02*
X66507Y-42637D01*
X66250Y-42895D02*
X66250Y-43730D01*
X66507Y-42637D02*
X66250Y-42895D01*
X66250Y-44575D02*
X66250Y-45190D01*
G54D40*
X60701Y-47118D02*
X61486Y-47118D01*
X60620Y-47200D02*
X60701Y-47118D01*
X60620Y-47840D02*
X60620Y-47200D01*
G54D39*
X67340Y-40140D02*
X67775Y-40140D01*
X69822Y-41912D02*
X69147Y-41912D01*
X70125Y-41610D02*
X69822Y-41912D01*
X70125Y-40395D02*
X70125Y-41610D01*
X69945Y-40215D02*
X70125Y-40395D01*
X67850Y-40215D02*
X69945Y-40215D01*
X67775Y-40140D02*
X67850Y-40215D01*
X68397Y-41912D02*
X69147Y-41912D01*
X70500Y-45080D02*
X68920Y-45080D01*
X65132Y-42892D02*
X64647Y-42892D01*
X65340Y-43100D02*
X65132Y-42892D01*
X68920Y-45080D02*
X68020Y-44180D01*
X71500Y-46080D02*
X70500Y-45080D01*
G54D40*
X50200Y-46950D02*
X50200Y-45650D01*
X50200Y-45650D02*
X51600Y-45650D01*
X49100Y-45650D02*
X50200Y-45650D01*
X50250Y-41200D02*
X49475Y-41200D01*
X49025Y-41650D02*
X49025Y-43820D01*
X49475Y-41200D02*
X49025Y-41650D01*
X47708Y-43820D02*
X49025Y-43820D01*
X49025Y-43820D02*
X50220Y-43820D01*
X50200Y-43840D02*
X50200Y-44450D01*
X50220Y-43820D02*
X50200Y-43840D01*
G54D39*
X49020Y-48945D02*
X49020Y-48340D01*
G54D10*
G36*
X53076Y-50176D02*
X49648Y-50176D01*
X49648Y-47698D01*
X50898Y-47698D01*
X50898Y-46548D01*
X51301Y-46548D01*
X51301Y-48048D01*
X52598Y-48048D01*
X52598Y-45823D01*
X53076Y-45823D01*
X53076Y-50176D01*
X53076Y-50176D01*
G37*
G54D40*
X53076Y-50176D02*
X49648Y-50176D01*
X49648Y-47698D01*
X50898Y-47698D01*
X50898Y-46548D01*
X51301Y-46548D01*
X51301Y-48048D01*
X52598Y-48048D01*
X52598Y-45823D01*
X53076Y-45823D01*
X53076Y-50176D01*
G54D10*
G36*
X50201Y-38401D02*
X49598Y-38401D01*
X49598Y-37798D01*
X50200Y-37798D01*
X50201Y-37798D01*
X50201Y-38401D01*
X50201Y-38401D01*
G37*
G54D40*
X50201Y-38401D02*
X49598Y-38401D01*
X49598Y-37798D01*
X50200Y-37798D01*
X50201Y-37798D01*
X50201Y-38401D01*
M02*
