%FSLAX34Y34*%
G04 Gerber Fmt 3.4, Leading zero omitted, Abs format*
G04 (created by PCBNEW (2014-03-19 BZR 4756)-product) date Thu 12 Jun 2014 08:54:00 PM AKDT*
%MOIN*%
G01*
G70*
G90*
G04 APERTURE LIST*
%ADD10C,0.005906*%
%ADD11O,0.118700X0.059300*%
%ADD12C,0.062992*%
%ADD13R,0.055000X0.055000*%
%ADD14C,0.055000*%
%ADD15C,0.060000*%
%ADD16C,0.035000*%
%ADD17C,0.013780*%
%ADD18C,0.019685*%
G04 APERTURE END LIST*
G54D10*
G54D11*
X50250Y-42200D03*
X50250Y-41200D03*
X50250Y-40200D03*
G54D12*
X57500Y-47118D03*
X57500Y-49481D03*
X63750Y-47118D03*
X63750Y-49481D03*
G54D13*
X58225Y-44975D03*
G54D14*
X57225Y-44975D03*
X56225Y-44975D03*
X55225Y-44975D03*
G54D15*
X70500Y-38480D03*
X71500Y-39480D03*
X69500Y-39480D03*
X70500Y-45080D03*
X71500Y-46080D03*
X69500Y-46080D03*
X46750Y-41150D03*
X45750Y-40150D03*
X47750Y-40150D03*
G54D16*
X49700Y-37900D03*
X49700Y-38300D03*
X50100Y-38300D03*
X50100Y-37900D03*
X53740Y-37900D03*
X53340Y-37900D03*
X53180Y-39640D03*
X53540Y-39640D03*
X53300Y-40220D03*
X53300Y-40920D03*
X60120Y-42760D03*
X62064Y-43196D03*
X62716Y-43188D03*
X63372Y-43188D03*
X67460Y-41965D03*
X51380Y-38560D03*
X49980Y-36380D03*
X49980Y-37040D03*
X47380Y-37660D03*
X48460Y-38640D03*
X61200Y-45840D03*
X60580Y-49580D03*
X54575Y-49575D03*
X54000Y-48575D03*
X54000Y-47775D03*
X54000Y-46975D03*
X53200Y-44200D03*
X51600Y-43875D03*
X48450Y-45150D03*
X49100Y-46650D03*
X52000Y-47500D03*
X49020Y-47280D03*
X56000Y-34040D03*
X56020Y-35920D03*
X53100Y-35320D03*
X53080Y-35680D03*
X51480Y-35280D03*
X51480Y-34920D03*
X54460Y-36200D03*
X54460Y-36860D03*
X60220Y-37600D03*
X58080Y-37340D03*
X58080Y-38140D03*
X59440Y-38800D03*
X59460Y-38500D03*
X60910Y-39040D03*
X60890Y-39390D03*
X60890Y-37440D03*
X60890Y-36720D03*
X62340Y-34960D03*
X64400Y-34940D03*
X62200Y-38300D03*
X62210Y-37945D03*
X63740Y-38455D03*
X63740Y-38800D03*
X58230Y-39860D03*
X57310Y-39430D03*
X55500Y-39720D03*
X56360Y-39420D03*
X65140Y-37220D03*
X49020Y-35840D03*
X59640Y-34680D03*
X53480Y-37360D03*
X54320Y-41440D03*
X53980Y-45900D03*
X61100Y-41920D03*
X62160Y-40180D03*
X69700Y-40780D03*
X69660Y-42500D03*
X64460Y-43740D03*
X61700Y-43660D03*
X65340Y-42640D03*
X59660Y-44140D03*
X62520Y-44140D03*
X63480Y-40280D03*
X64500Y-38980D03*
X66250Y-45190D03*
X60620Y-47840D03*
X65340Y-43100D03*
X68020Y-44180D03*
G54D17*
X49700Y-38300D02*
X50100Y-38300D01*
X50100Y-37900D02*
X49700Y-37900D01*
X65340Y-42640D02*
X64740Y-42640D01*
X64740Y-42640D02*
X63720Y-43660D01*
X63720Y-43660D02*
X61700Y-43660D01*
X57540Y-43660D02*
X56225Y-44975D01*
X61700Y-43660D02*
X57540Y-43660D01*
X69500Y-44780D02*
X69500Y-46080D01*
X67320Y-42600D02*
X69500Y-44780D01*
X65380Y-42600D02*
X67320Y-42600D01*
X65340Y-42640D02*
X65380Y-42600D01*
X62520Y-44140D02*
X59660Y-44140D01*
X69500Y-39480D02*
X64280Y-39480D01*
X64280Y-39480D02*
X63480Y-40280D01*
X70500Y-38480D02*
X64740Y-38480D01*
X64500Y-38720D02*
X64500Y-38980D01*
X64740Y-38480D02*
X64500Y-38720D01*
X60620Y-47170D02*
X60620Y-47840D01*
X61360Y-46430D02*
X60620Y-47170D01*
X65010Y-46430D02*
X61360Y-46430D01*
X66250Y-45190D02*
X65010Y-46430D01*
G54D18*
X57225Y-44975D02*
X57225Y-45645D01*
X58580Y-47840D02*
X60620Y-47840D01*
X58360Y-47620D02*
X58580Y-47840D01*
X58360Y-46780D02*
X58360Y-47620D01*
X57225Y-45645D02*
X58360Y-46780D01*
G54D17*
X66940Y-43100D02*
X65340Y-43100D01*
X68020Y-44180D02*
X66940Y-43100D01*
M02*
