%FSLAX34Y34*%
G04 Gerber Fmt 3.4, Leading zero omitted, Abs format*
G04 (created by PCBNEW (2014-03-19 BZR 4756)-product) date Thu 12 Jun 2014 08:54:00 PM AKDT*
%MOIN*%
G01*
G70*
G90*
G04 APERTURE LIST*
%ADD10C,0.005906*%
%ADD11C,0.011811*%
%ADD12C,0.003937*%
G04 APERTURE END LIST*
G54D10*
G54D11*
X59078Y-42414D02*
X59078Y-42073D01*
X59078Y-42121D02*
X59053Y-42097D01*
X59005Y-42073D01*
X58931Y-42073D01*
X58883Y-42097D01*
X58858Y-42146D01*
X58858Y-42414D01*
X58858Y-42146D02*
X58834Y-42097D01*
X58785Y-42073D01*
X58712Y-42073D01*
X58663Y-42097D01*
X58639Y-42146D01*
X58639Y-42414D01*
X58395Y-42414D02*
X58395Y-42073D01*
X58395Y-42170D02*
X58371Y-42121D01*
X58346Y-42097D01*
X58298Y-42073D01*
X58249Y-42073D01*
X58200Y-42462D02*
X57810Y-42462D01*
X57688Y-42414D02*
X57688Y-42073D01*
X57688Y-42170D02*
X57664Y-42121D01*
X57640Y-42097D01*
X57591Y-42073D01*
X57542Y-42073D01*
X57152Y-42414D02*
X57152Y-42146D01*
X57177Y-42097D01*
X57225Y-42073D01*
X57323Y-42073D01*
X57372Y-42097D01*
X57152Y-42389D02*
X57201Y-42414D01*
X57323Y-42414D01*
X57372Y-42389D01*
X57396Y-42341D01*
X57396Y-42292D01*
X57372Y-42243D01*
X57323Y-42219D01*
X57201Y-42219D01*
X57152Y-42194D01*
X56689Y-42414D02*
X56689Y-41902D01*
X56689Y-42389D02*
X56738Y-42414D01*
X56835Y-42414D01*
X56884Y-42389D01*
X56909Y-42365D01*
X56933Y-42316D01*
X56933Y-42170D01*
X56909Y-42121D01*
X56884Y-42097D01*
X56835Y-42073D01*
X56738Y-42073D01*
X56689Y-42097D01*
X56226Y-42414D02*
X56226Y-42146D01*
X56250Y-42097D01*
X56299Y-42073D01*
X56397Y-42073D01*
X56445Y-42097D01*
X56226Y-42389D02*
X56275Y-42414D01*
X56397Y-42414D01*
X56445Y-42389D01*
X56470Y-42341D01*
X56470Y-42292D01*
X56445Y-42243D01*
X56397Y-42219D01*
X56275Y-42219D01*
X56226Y-42194D01*
X55982Y-42414D02*
X55982Y-42073D01*
X55982Y-42170D02*
X55958Y-42121D01*
X55934Y-42097D01*
X55885Y-42073D01*
X55836Y-42073D01*
X58834Y-42737D02*
X59078Y-42737D01*
X59102Y-42980D01*
X59078Y-42956D01*
X59029Y-42932D01*
X58907Y-42932D01*
X58858Y-42956D01*
X58834Y-42980D01*
X58810Y-43029D01*
X58810Y-43151D01*
X58834Y-43200D01*
X58858Y-43224D01*
X58907Y-43248D01*
X59029Y-43248D01*
X59078Y-43224D01*
X59102Y-43200D01*
X58590Y-43200D02*
X58566Y-43224D01*
X58590Y-43248D01*
X58615Y-43224D01*
X58590Y-43200D01*
X58590Y-43248D01*
X58273Y-42956D02*
X58322Y-42932D01*
X58346Y-42907D01*
X58371Y-42858D01*
X58371Y-42834D01*
X58346Y-42785D01*
X58322Y-42761D01*
X58273Y-42737D01*
X58176Y-42737D01*
X58127Y-42761D01*
X58103Y-42785D01*
X58078Y-42834D01*
X58078Y-42858D01*
X58103Y-42907D01*
X58127Y-42932D01*
X58176Y-42956D01*
X58273Y-42956D01*
X58322Y-42980D01*
X58346Y-43005D01*
X58371Y-43053D01*
X58371Y-43151D01*
X58346Y-43200D01*
X58322Y-43224D01*
X58273Y-43248D01*
X58176Y-43248D01*
X58127Y-43224D01*
X58103Y-43200D01*
X58078Y-43151D01*
X58078Y-43053D01*
X58103Y-43005D01*
X58127Y-42980D01*
X58176Y-42956D01*
X57201Y-42761D02*
X57250Y-42737D01*
X57323Y-42737D01*
X57396Y-42761D01*
X57445Y-42810D01*
X57469Y-42858D01*
X57493Y-42956D01*
X57493Y-43029D01*
X57469Y-43126D01*
X57445Y-43175D01*
X57396Y-43224D01*
X57323Y-43248D01*
X57274Y-43248D01*
X57201Y-43224D01*
X57177Y-43200D01*
X57177Y-43029D01*
X57274Y-43029D01*
X56957Y-43248D02*
X56957Y-42737D01*
X56957Y-42980D02*
X56665Y-42980D01*
X56665Y-43248D02*
X56665Y-42737D01*
X56470Y-42737D02*
X56129Y-42737D01*
X56470Y-43248D01*
X56129Y-43248D01*
X55544Y-43248D02*
X55544Y-42737D01*
X55324Y-43224D02*
X55251Y-43248D01*
X55129Y-43248D01*
X55081Y-43224D01*
X55056Y-43200D01*
X55032Y-43151D01*
X55032Y-43102D01*
X55056Y-43053D01*
X55081Y-43029D01*
X55129Y-43005D01*
X55227Y-42980D01*
X55276Y-42956D01*
X55300Y-42932D01*
X55324Y-42883D01*
X55324Y-42834D01*
X55300Y-42785D01*
X55276Y-42761D01*
X55227Y-42737D01*
X55105Y-42737D01*
X55032Y-42761D01*
X54813Y-43248D02*
X54813Y-42737D01*
X54642Y-43102D01*
X54471Y-42737D01*
X54471Y-43248D01*
X53838Y-43248D02*
X53838Y-42737D01*
X53838Y-42932D02*
X53789Y-42907D01*
X53691Y-42907D01*
X53643Y-42932D01*
X53618Y-42956D01*
X53594Y-43005D01*
X53594Y-43151D01*
X53618Y-43200D01*
X53643Y-43224D01*
X53691Y-43248D01*
X53789Y-43248D01*
X53838Y-43224D01*
X53155Y-43248D02*
X53155Y-42980D01*
X53180Y-42932D01*
X53228Y-42907D01*
X53326Y-42907D01*
X53375Y-42932D01*
X53155Y-43224D02*
X53204Y-43248D01*
X53326Y-43248D01*
X53375Y-43224D01*
X53399Y-43175D01*
X53399Y-43126D01*
X53375Y-43078D01*
X53326Y-43053D01*
X53204Y-43053D01*
X53155Y-43029D01*
X52912Y-42907D02*
X52912Y-43248D01*
X52912Y-42956D02*
X52887Y-42932D01*
X52838Y-42907D01*
X52765Y-42907D01*
X52717Y-42932D01*
X52692Y-42980D01*
X52692Y-43248D01*
X52229Y-43248D02*
X52229Y-42737D01*
X52229Y-43224D02*
X52278Y-43248D01*
X52375Y-43248D01*
X52424Y-43224D01*
X52448Y-43200D01*
X52473Y-43151D01*
X52473Y-43005D01*
X52448Y-42956D01*
X52424Y-42932D01*
X52375Y-42907D01*
X52278Y-42907D01*
X52229Y-42932D01*
X51669Y-42907D02*
X51474Y-42907D01*
X51595Y-43248D02*
X51595Y-42810D01*
X51571Y-42761D01*
X51522Y-42737D01*
X51474Y-42737D01*
X51303Y-43248D02*
X51303Y-42907D01*
X51303Y-42956D02*
X51279Y-42932D01*
X51230Y-42907D01*
X51157Y-42907D01*
X51108Y-42932D01*
X51084Y-42980D01*
X51084Y-43248D01*
X51084Y-42980D02*
X51059Y-42932D01*
X51011Y-42907D01*
X50937Y-42907D01*
X50889Y-42932D01*
X50864Y-42980D01*
X50864Y-43248D01*
X50401Y-43224D02*
X50450Y-43248D01*
X50547Y-43248D01*
X50596Y-43224D01*
X50621Y-43200D01*
X50645Y-43151D01*
X50645Y-43005D01*
X50621Y-42956D01*
X50596Y-42932D01*
X50547Y-42907D01*
X50450Y-42907D01*
X50401Y-42932D01*
X50231Y-42907D02*
X50133Y-43248D01*
X50036Y-43005D01*
X49938Y-43248D01*
X49841Y-42907D01*
X49256Y-43248D02*
X49256Y-42907D01*
X49256Y-43005D02*
X49231Y-42956D01*
X49207Y-42932D01*
X49158Y-42907D01*
X49110Y-42907D01*
X48720Y-43248D02*
X48720Y-42980D01*
X48744Y-42932D01*
X48793Y-42907D01*
X48890Y-42907D01*
X48939Y-42932D01*
X48720Y-43224D02*
X48768Y-43248D01*
X48890Y-43248D01*
X48939Y-43224D01*
X48963Y-43175D01*
X48963Y-43126D01*
X48939Y-43078D01*
X48890Y-43053D01*
X48768Y-43053D01*
X48720Y-43029D01*
X48256Y-43248D02*
X48256Y-42737D01*
X48256Y-43224D02*
X48305Y-43248D01*
X48403Y-43248D01*
X48451Y-43224D01*
X48476Y-43200D01*
X48500Y-43151D01*
X48500Y-43005D01*
X48476Y-42956D01*
X48451Y-42932D01*
X48403Y-42907D01*
X48305Y-42907D01*
X48256Y-42932D01*
X47793Y-43248D02*
X47793Y-42980D01*
X47818Y-42932D01*
X47867Y-42907D01*
X47964Y-42907D01*
X48013Y-42932D01*
X47793Y-43224D02*
X47842Y-43248D01*
X47964Y-43248D01*
X48013Y-43224D01*
X48037Y-43175D01*
X48037Y-43126D01*
X48013Y-43078D01*
X47964Y-43053D01*
X47842Y-43053D01*
X47793Y-43029D01*
X47550Y-43248D02*
X47550Y-42907D01*
X47550Y-43005D02*
X47525Y-42956D01*
X47501Y-42932D01*
X47452Y-42907D01*
X47403Y-42907D01*
G54D12*
G36*
X69111Y-43573D02*
X69091Y-43594D01*
X69017Y-43610D01*
X69009Y-43611D01*
X68915Y-43620D01*
X68769Y-43626D01*
X68586Y-43628D01*
X68380Y-43628D01*
X68165Y-43625D01*
X67957Y-43619D01*
X67769Y-43611D01*
X67617Y-43601D01*
X67566Y-43595D01*
X67350Y-43566D01*
X67136Y-43529D01*
X66937Y-43487D01*
X66767Y-43444D01*
X66638Y-43402D01*
X66568Y-43368D01*
X66472Y-43262D01*
X66392Y-43095D01*
X66328Y-42870D01*
X66294Y-42682D01*
X66283Y-42574D01*
X66274Y-42409D01*
X66267Y-42195D01*
X66260Y-41942D01*
X66255Y-41658D01*
X66252Y-41353D01*
X66250Y-41036D01*
X66249Y-40715D01*
X66250Y-40400D01*
X66253Y-40099D01*
X66257Y-39823D01*
X66263Y-39579D01*
X66271Y-39377D01*
X66278Y-39261D01*
X66306Y-38873D01*
X66763Y-38891D01*
X67221Y-38909D01*
X67293Y-38816D01*
X67354Y-38713D01*
X67355Y-38620D01*
X67295Y-38520D01*
X67287Y-38511D01*
X67220Y-38450D01*
X67145Y-38427D01*
X67070Y-38427D01*
X66983Y-38429D01*
X66944Y-38413D01*
X66933Y-38365D01*
X66933Y-38332D01*
X66904Y-38179D01*
X66816Y-38058D01*
X66672Y-37971D01*
X66610Y-37949D01*
X66501Y-37915D01*
X66618Y-37680D01*
X66722Y-37500D01*
X66838Y-37345D01*
X66955Y-37228D01*
X67061Y-37162D01*
X67199Y-37128D01*
X67378Y-37111D01*
X67573Y-37112D01*
X67759Y-37130D01*
X67842Y-37146D01*
X68128Y-37237D01*
X68361Y-37364D01*
X68545Y-37533D01*
X68685Y-37749D01*
X68786Y-38016D01*
X68816Y-38135D01*
X68844Y-38308D01*
X68867Y-38532D01*
X68883Y-38792D01*
X68892Y-39072D01*
X68894Y-39357D01*
X68888Y-39632D01*
X68873Y-39882D01*
X68867Y-39956D01*
X68848Y-40134D01*
X68831Y-40262D01*
X68811Y-40355D01*
X68784Y-40428D01*
X68744Y-40499D01*
X68701Y-40565D01*
X68567Y-40772D01*
X68524Y-40842D01*
X68524Y-38405D01*
X68522Y-38344D01*
X68466Y-38181D01*
X68367Y-38056D01*
X68237Y-37973D01*
X68089Y-37935D01*
X67936Y-37946D01*
X67790Y-38009D01*
X67669Y-38120D01*
X67611Y-38243D01*
X67598Y-38388D01*
X67627Y-38534D01*
X67694Y-38661D01*
X67792Y-38747D01*
X67910Y-38785D01*
X68058Y-38796D01*
X68204Y-38782D01*
X68298Y-38750D01*
X68410Y-38662D01*
X68489Y-38539D01*
X68524Y-38405D01*
X68524Y-40842D01*
X68437Y-40985D01*
X68319Y-41192D01*
X68222Y-41377D01*
X68151Y-41529D01*
X68130Y-41583D01*
X68089Y-41735D01*
X68091Y-41845D01*
X68141Y-41917D01*
X68242Y-41956D01*
X68400Y-41964D01*
X68511Y-41958D01*
X68716Y-41942D01*
X68725Y-42252D01*
X68744Y-42490D01*
X68784Y-42738D01*
X68841Y-42980D01*
X68912Y-43201D01*
X68992Y-43387D01*
X69077Y-43524D01*
X69088Y-43537D01*
X69111Y-43573D01*
X69111Y-43573D01*
X69111Y-43573D01*
G37*
G36*
X67301Y-38683D02*
X67277Y-38771D01*
X67260Y-38793D01*
X67207Y-38810D01*
X67094Y-38821D01*
X66925Y-38826D01*
X66706Y-38826D01*
X66442Y-38819D01*
X66183Y-38809D01*
X66058Y-38801D01*
X65957Y-38790D01*
X65900Y-38779D01*
X65900Y-38779D01*
X65907Y-38763D01*
X65973Y-38737D01*
X66092Y-38701D01*
X66257Y-38658D01*
X66462Y-38609D01*
X66699Y-38556D01*
X66812Y-38532D01*
X66964Y-38502D01*
X67066Y-38485D01*
X67133Y-38483D01*
X67180Y-38493D01*
X67220Y-38516D01*
X67280Y-38588D01*
X67301Y-38683D01*
X67301Y-38683D01*
X67301Y-38683D01*
G37*
G36*
X66559Y-38115D02*
X66554Y-38168D01*
X66503Y-38232D01*
X66484Y-38251D01*
X66375Y-38320D01*
X66284Y-38333D01*
X66205Y-38327D01*
X66172Y-38299D01*
X66166Y-38251D01*
X66191Y-38162D01*
X66254Y-38086D01*
X66337Y-38032D01*
X66425Y-38009D01*
X66499Y-38029D01*
X66521Y-38051D01*
X66559Y-38115D01*
X66559Y-38115D01*
X66559Y-38115D01*
G37*
G36*
X68050Y-38219D02*
X68007Y-38303D01*
X67936Y-38372D01*
X67850Y-38418D01*
X67764Y-38431D01*
X67694Y-38403D01*
X67669Y-38372D01*
X67650Y-38273D01*
X67689Y-38180D01*
X67769Y-38115D01*
X67886Y-38072D01*
X67981Y-38072D01*
X68041Y-38113D01*
X68049Y-38132D01*
X68050Y-38219D01*
X68050Y-38219D01*
X68050Y-38219D01*
G37*
M02*
