%FSLAX34Y34*%
G04 Gerber Fmt 3.4, Leading zero omitted, Abs format*
G04 (created by PCBNEW (2014-03-19 BZR 4756)-product) date Thu 12 Jun 2014 08:54:00 PM AKDT*
%MOIN*%
G01*
G70*
G90*
G04 APERTURE LIST*
%ADD10C,0.005906*%
%ADD11R,0.025000X0.045000*%
%ADD12R,0.045000X0.025000*%
%ADD13R,0.100000X0.050000*%
%ADD14O,0.118700X0.059300*%
%ADD15R,0.040200X0.016100*%
%ADD16R,0.016000X0.026000*%
%ADD17R,0.026000X0.016000*%
%ADD18R,0.051200X0.011800*%
%ADD19R,0.039370X0.039370*%
%ADD20R,0.086614X0.039370*%
%ADD21R,0.039370X0.086614*%
%ADD22C,0.062992*%
%ADD23R,0.068898X0.114173*%
%ADD24R,0.088583X0.114173*%
%ADD25R,0.068898X0.082677*%
%ADD26R,0.088583X0.094488*%
%ADD27R,0.068898X0.070866*%
%ADD28R,0.090600X0.019700*%
%ADD29R,0.098400X0.078700*%
%ADD30C,0.035400*%
%ADD31R,0.055000X0.055000*%
%ADD32C,0.055000*%
%ADD33R,0.144000X0.080000*%
%ADD34R,0.040000X0.080000*%
%ADD35C,0.060000*%
%ADD36R,0.015700X0.023600*%
%ADD37R,0.023600X0.015700*%
%ADD38R,0.031400X0.031400*%
%ADD39C,0.019685*%
G04 APERTURE END LIST*
G54D10*
G54D11*
X49620Y-36400D03*
X49020Y-36400D03*
X47860Y-37660D03*
X48460Y-37660D03*
X49620Y-37040D03*
X49020Y-37040D03*
X50100Y-39120D03*
X49500Y-39120D03*
X61200Y-44180D03*
X60600Y-44180D03*
X53720Y-40920D03*
X54320Y-40920D03*
X54080Y-36180D03*
X53480Y-36180D03*
X53720Y-40220D03*
X54320Y-40220D03*
G54D12*
X59650Y-45375D03*
X59650Y-44775D03*
G54D11*
X54080Y-36880D03*
X53480Y-36880D03*
G54D12*
X62050Y-42750D03*
X62050Y-42150D03*
X62710Y-42750D03*
X62710Y-42150D03*
G54D13*
X53200Y-45900D03*
X53200Y-44700D03*
G54D12*
X63370Y-42150D03*
X63370Y-42750D03*
G54D11*
X53025Y-47775D03*
X53625Y-47775D03*
G54D12*
X57760Y-41120D03*
X57760Y-40520D03*
G54D11*
X53625Y-48575D03*
X53025Y-48575D03*
X53625Y-46975D03*
X53025Y-46975D03*
X58480Y-37340D03*
X59080Y-37340D03*
X58480Y-38140D03*
X59080Y-38140D03*
G54D12*
X66540Y-38920D03*
X66540Y-39520D03*
X66540Y-40140D03*
X66540Y-40740D03*
X60220Y-37200D03*
X60220Y-36600D03*
G54D11*
X61240Y-37440D03*
X61840Y-37440D03*
X61240Y-36720D03*
X61840Y-36720D03*
G54D12*
X69147Y-43612D03*
X69147Y-43012D03*
X68397Y-43012D03*
X68397Y-43612D03*
G54D14*
X50250Y-42200D03*
X50250Y-41200D03*
X50250Y-40200D03*
G54D12*
X60440Y-45380D03*
X60440Y-44780D03*
X61200Y-45380D03*
X61200Y-44780D03*
G54D11*
X60600Y-43480D03*
X61200Y-43480D03*
G54D12*
X62970Y-41290D03*
X62970Y-40690D03*
X63990Y-41290D03*
X63990Y-40690D03*
G54D11*
X60600Y-42760D03*
X61200Y-42760D03*
G54D12*
X65137Y-40652D03*
X65137Y-40052D03*
X65140Y-39540D03*
X65140Y-38940D03*
X65860Y-39540D03*
X65860Y-40140D03*
X69147Y-40762D03*
X69147Y-41362D03*
G54D11*
X66850Y-43730D03*
X66250Y-43730D03*
G54D12*
X68397Y-40762D03*
X68397Y-41362D03*
G54D11*
X64890Y-43750D03*
X65490Y-43750D03*
X66250Y-44575D03*
X66850Y-44575D03*
G54D12*
X67340Y-40740D03*
X67340Y-40140D03*
X69147Y-41912D03*
X69147Y-42512D03*
X68397Y-41912D03*
X68397Y-42512D03*
G54D15*
X49014Y-37656D03*
X49014Y-37912D03*
X49014Y-38168D03*
X49014Y-38424D03*
X50826Y-38424D03*
X50826Y-38168D03*
X50826Y-37912D03*
X50826Y-37656D03*
G54D16*
X53760Y-38380D03*
X53240Y-38380D03*
X53500Y-38380D03*
X53240Y-39180D03*
X53760Y-39180D03*
X53500Y-39180D03*
G54D17*
X51920Y-34980D03*
X51920Y-35500D03*
X51920Y-35240D03*
X52720Y-35500D03*
X52720Y-34980D03*
X52720Y-35240D03*
G54D15*
X55954Y-39176D03*
X55954Y-39432D03*
X55954Y-39688D03*
X55954Y-39944D03*
X57766Y-39944D03*
X57766Y-39688D03*
X57766Y-39432D03*
X57766Y-39176D03*
G54D18*
X64647Y-41362D03*
X64647Y-41612D03*
X64647Y-41872D03*
X64647Y-42122D03*
X64647Y-42382D03*
X64647Y-42637D03*
X64647Y-42892D03*
X66847Y-42892D03*
X66847Y-42637D03*
X66847Y-42382D03*
X66847Y-42122D03*
X66847Y-41867D03*
X66847Y-41612D03*
X66847Y-41357D03*
G54D17*
X60560Y-39180D03*
X60560Y-38660D03*
X60560Y-38920D03*
X59760Y-38660D03*
X59760Y-39180D03*
X59760Y-38920D03*
X63360Y-38640D03*
X63360Y-38120D03*
X63360Y-38380D03*
X62560Y-38120D03*
X62560Y-38640D03*
X62560Y-38380D03*
G54D19*
X55409Y-34960D03*
G54D20*
X56000Y-34369D03*
X56000Y-35550D03*
G54D19*
X63360Y-35550D03*
G54D21*
X62769Y-34960D03*
X63950Y-34960D03*
G54D22*
X57500Y-47118D03*
X57500Y-49481D03*
G54D23*
X55236Y-49579D03*
G54D24*
X59665Y-46922D03*
G54D25*
X55236Y-47118D03*
G54D26*
X59665Y-48693D03*
G54D27*
X55236Y-48300D03*
G54D22*
X63750Y-47118D03*
X63750Y-49481D03*
G54D23*
X61486Y-49579D03*
G54D24*
X65915Y-46922D03*
G54D25*
X61486Y-47118D03*
G54D26*
X65915Y-48693D03*
G54D27*
X61486Y-48300D03*
G54D12*
X49100Y-45650D03*
X49100Y-46250D03*
G54D13*
X51600Y-45650D03*
X51600Y-44450D03*
G54D28*
X47708Y-43820D03*
X47708Y-44135D03*
X47708Y-44450D03*
X47708Y-44765D03*
X47708Y-45080D03*
G54D29*
X47669Y-42698D03*
X45504Y-42698D03*
X47669Y-46202D03*
X45504Y-46202D03*
G54D30*
X46685Y-43584D03*
X46685Y-45316D03*
G54D13*
X60440Y-34680D03*
X60440Y-35880D03*
X50200Y-45650D03*
X50200Y-44450D03*
G54D31*
X58225Y-44975D03*
G54D32*
X57225Y-44975D03*
X56225Y-44975D03*
X55225Y-44975D03*
G54D33*
X51100Y-49550D03*
G54D34*
X51100Y-46950D03*
X50200Y-46950D03*
X52000Y-46950D03*
G54D35*
X70500Y-38480D03*
X71500Y-39480D03*
X69500Y-39480D03*
X70500Y-45080D03*
X71500Y-46080D03*
X69500Y-46080D03*
X46750Y-41150D03*
X45750Y-40150D03*
X47750Y-40150D03*
G54D36*
X52697Y-38380D03*
X52343Y-38380D03*
G54D37*
X51920Y-36003D03*
X51920Y-36357D03*
G54D36*
X55257Y-39180D03*
X54903Y-39180D03*
X54237Y-34960D03*
X53883Y-34960D03*
X58657Y-39180D03*
X58303Y-39180D03*
X61397Y-38660D03*
X61043Y-38660D03*
G54D37*
X63360Y-37183D03*
X63360Y-37537D03*
G54D38*
X49020Y-49535D03*
X49020Y-48945D03*
G54D37*
X54320Y-39537D03*
X54320Y-39183D03*
X53460Y-35317D03*
X53460Y-34963D03*
X59080Y-38823D03*
X59080Y-39177D03*
X61840Y-38283D03*
X61840Y-38637D03*
G54D36*
X51917Y-37660D03*
X51563Y-37660D03*
G54D37*
X52340Y-38017D03*
X52340Y-37663D03*
X51920Y-36903D03*
X51920Y-37257D03*
G54D12*
X49020Y-47740D03*
X49020Y-48340D03*
G54D10*
G36*
X50201Y-38401D02*
X49598Y-38401D01*
X49598Y-37798D01*
X50201Y-37798D01*
X50201Y-38401D01*
X50201Y-38401D01*
G37*
G54D39*
X50201Y-38401D02*
X49598Y-38401D01*
X49598Y-37798D01*
X50201Y-37798D01*
X50201Y-38401D01*
M02*
